<svg width="55" height="55" viewBox="0 0 55 55" fill="#000" xmlns="http://www.w3.org/2000/svg">
<g filter="url(#filter0_d_54_500)">
<rect x="8" y="8" width="39" height="39" rx="8" fill="#232531"/>
<path d="M28.1596 27.62C28.1296 27.62 28.1096 27.62 28.0796 27.62C28.0296 27.61 27.9596 27.61 27.8996 27.62C24.9996 27.53 22.8096 25.25 22.8096 22.44C22.8096 19.58 25.1396 17.25 27.9996 17.25C30.8596 17.25 33.1896 19.58 33.1896 22.44C33.1796 25.25 30.9796 27.53 28.1896 27.62C28.1796 27.62 28.1696 27.62 28.1596 27.62ZM27.9996 18.75C25.9696 18.75 24.3096 20.41 24.3096 22.44C24.3096 24.44 25.8696 26.05 27.8596 26.12C27.9096 26.11 28.0496 26.11 28.1796 26.12C30.1396 26.03 31.6796 24.42 31.6896 22.44C31.6896 20.41 30.0296 18.75 27.9996 18.75Z" fill="white"/>
<path d="M28.1696 38.5501C26.2096 38.5501 24.2396 38.0501 22.7496 37.0501C21.3596 36.1301 20.5996 34.8701 20.5996 33.5001C20.5996 32.1301 21.3596 30.8601 22.7496 29.9301C25.7496 27.9401 30.6096 27.9401 33.5896 29.9301C34.9696 30.8501 35.7396 32.1101 35.7396 33.4801C35.7396 34.8501 34.9796 36.1201 33.5896 37.0501C32.0896 38.0501 30.1296 38.5501 28.1696 38.5501ZM23.5796 31.1901C22.6196 31.8301 22.0996 32.6501 22.0996 33.5101C22.0996 34.3601 22.6296 35.1801 23.5796 35.8101C26.0696 37.4801 30.2696 37.4801 32.7596 35.8101C33.7196 35.1701 34.2396 34.3501 34.2396 33.4901C34.2396 32.6401 33.7096 31.8201 32.7596 31.1901C30.2696 29.5301 26.0696 29.5301 23.5796 31.1901Z" fill="white"/>
</g>
<defs>
<filter id="filter0_d_54_500" x="0" y="0" width="55" height="55" filterUnits="userSpaceOnUse" color-interpolation-filters="sRGB">
<feFlood flood-opacity="0" result="BackgroundImageFix"/>
<feColorMatrix in="SourceAlpha" type="matrix" values="0 0 0 0 0 0 0 0 0 0 0 0 0 0 0 0 0 0 127 0" result="hardAlpha"/>
<feOffset/>
<feGaussianBlur stdDeviation="4"/>
<feComposite in2="hardAlpha" operator="out"/>
<feColorMatrix type="matrix" values="0 0 0 0 0 0 0 0 0 0 0 0 0 0 0 0 0 0 0.02 0"/>
<feBlend mode="normal" in2="BackgroundImageFix" result="effect1_dropShadow_54_500"/>
<feBlend mode="normal" in="SourceGraphic" in2="effect1_dropShadow_54_500" result="shape"/>
</filter>
</defs>
</svg>
